<svg xmlns="http://www.w3.org/2000/svg" xmlns:xlink="http://www.w3.org/1999/xlink" width="24.938" height="25.03" viewBox="0 0 24.938 25.03">
  <defs>
    <style>
      .cls-1 {
        fill-rule: evenodd;
        filter: url(#filter);
      }
    </style>
    <filter id="filter" x="663.531" y="5105.5" width="24.938" height="25.03" filterUnits="userSpaceOnUse">
      <feFlood result="flood" flood-color="#fff"/>
      <feComposite result="composite" operator="in" in2="SourceGraphic"/>
      <feBlend result="blend" in2="SourceGraphic"/>
    </filter>
  </defs>
  <path id="cloud.svg" class="cls-1" d="M685.539,5111.77a3.017,3.017,0,0,0-.9.13,4.952,4.952,0,0,0,.042-0.65,5.833,5.833,0,0,0-11.249-2.07,3.592,3.592,0,0,0-5.483,2.99,2.919,2.919,0,1,0-1.492,5.43,0.415,0.415,0,1,0,0-.83,2.085,2.085,0,0,1,.067-4.17,2.064,2.064,0,0,1,1.724.97,0.418,0.418,0,0,0,.735-0.39,2.607,2.607,0,0,1-.2-1,2.743,2.743,0,0,1,2.762-2.71,2.8,2.8,0,0,1,1.827.7,0.421,0.421,0,0,0,.588-0.04,0.406,0.406,0,0,0,.088-0.17,5,5,0,0,1,9.8,1.29,4.887,4.887,0,0,1-.181,1.29,0.413,0.413,0,0,0,.289.51,0.435,0.435,0,0,0,.351-0.06,2.164,2.164,0,0,1,1.231-.39,2.085,2.085,0,0,1,0,4.17,0.413,0.413,0,0,0-.416.42,0.417,0.417,0,0,0,.416.41A2.915,2.915,0,1,0,685.539,5111.77Zm-2.458,9.58H668.916a1.25,1.25,0,0,0-1.249,1.25v1.67a1.25,1.25,0,0,0,1.249,1.25h14.165a1.25,1.25,0,0,0,1.25-1.25v-1.67A1.25,1.25,0,0,0,683.081,5121.35Zm0.417,2.92a0.419,0.419,0,0,1-.417.42H668.916a0.419,0.419,0,0,1-.416-0.42v-1.67a0.411,0.411,0,0,1,.416-0.41h14.165a0.411,0.411,0,0,1,.417.41v1.67Zm-1.572-1.64a0.8,0.8,0,0,0-.8.81A0.808,0.808,0,1,0,681.926,5122.63Zm0.01,0.83a0.02,0.02,0,0,1-.021-0.02l0.021-.03v0.05Zm-4.354-.44h-7.916a0.419,0.419,0,0,0-.416.42,0.411,0.411,0,0,0,.416.41h7.916a0.411,0.411,0,0,0,.417-0.41A0.42,0.42,0,0,0,677.582,5123.02Zm2.573,0h-1.108a0.419,0.419,0,0,0-.417.42,0.411,0.411,0,0,0,.417.41h1.108a0.411,0.411,0,0,0,.416-0.41A0.419,0.419,0,0,0,680.155,5123.02Zm2.926,3.33H668.916a1.252,1.252,0,0,0-1.249,1.26v1.66a1.25,1.25,0,0,0,1.249,1.25h14.165a1.25,1.25,0,0,0,1.25-1.25v-1.66A1.252,1.252,0,0,0,683.081,5126.35Zm0.417,2.92a0.419,0.419,0,0,1-.417.42H668.916a0.419,0.419,0,0,1-.416-0.42v-1.66a0.419,0.419,0,0,1,.416-0.42h14.165a0.419,0.419,0,0,1,.417.42v1.66Zm-1.572-1.64a0.81,0.81,0,0,0,.01,1.62A0.81,0.81,0,0,0,681.926,5127.63Zm0.01,0.83a0.02,0.02,0,0,1-.021-0.02l0.021-.03v0.05Zm-4.354-.44h-7.916a0.42,0.42,0,0,0,0,.84h7.916A0.42,0.42,0,0,0,677.582,5128.02Zm2.573,0h-1.108a0.42,0.42,0,0,0,0,.84h1.108A0.42,0.42,0,0,0,680.155,5128.02Zm2.926-11.67H668.916a1.25,1.25,0,0,0-1.249,1.25v1.67a1.25,1.25,0,0,0,1.249,1.25h14.165a1.25,1.25,0,0,0,1.25-1.25v-1.67A1.25,1.25,0,0,0,683.081,5116.35Zm0.417,2.92a0.419,0.419,0,0,1-.417.42H668.916a0.419,0.419,0,0,1-.416-0.42v-1.67a0.411,0.411,0,0,1,.416-0.41h14.165a0.411,0.411,0,0,1,.417.41v1.67Zm-0.891-.95a0.826,0.826,0,0,0-.946-0.66,0.812,0.812,0,0,0-.52.34,0.791,0.791,0,0,0-.134.6,0.813,0.813,0,0,0,.8.67,0.623,0.623,0,0,0,.136-0.01,0.824,0.824,0,0,0,.528-0.34A0.782,0.782,0,0,0,682.607,5118.32Zm-0.82.15,0.019-.03,0,0.05A0.018,0.018,0,0,1,681.787,5118.47Zm-4.288-.45h-7.916a0.42,0.42,0,0,0-.417.42,0.411,0.411,0,0,0,.417.41H677.5a0.411,0.411,0,0,0,.416-0.41A0.419,0.419,0,0,0,677.5,5118.02Zm2.389,0H678.78a0.419,0.419,0,0,0-.416.42,0.411,0.411,0,0,0,.416.41h1.108a0.411,0.411,0,0,0,.417-0.41A0.419,0.419,0,0,0,679.888,5118.02Zm-5.678-5.71-1.249-1.26a0.421,0.421,0,0,0-.589,0l-1.25,1.26a0.413,0.413,0,0,0,.589.58l0.538-.53v2.74a0.417,0.417,0,1,0,.834,0v-2.74l0.538,0.53a0.412,0.412,0,0,0,.589-0.01A0.406,0.406,0,0,0,674.21,5112.31Zm6.656,1.25a0.409,0.409,0,0,0-.579,0l-0.539.53v-2.74a0.417,0.417,0,1,0-.833,0v2.74l-0.538-.53a0.414,0.414,0,0,0-.59.01,0.407,0.407,0,0,0,0,.57l1.25,1.26a0.421,0.421,0,0,0,.589,0l1.25-1.26A0.405,0.405,0,0,0,680.866,5113.56Z" transform="translate(-663.531 -5105.5)"/>
</svg>
