<svg xmlns="http://www.w3.org/2000/svg" xmlns:xlink="http://www.w3.org/1999/xlink" width="25" height="25" viewBox="0 0 25 25">
  <defs>
    <style>
      .cls-1 {
        fill-rule: evenodd;
        filter: url(#filter);
      }
    </style>
    <filter id="filter" x="663.5" y="5248.5" width="25" height="25" filterUnits="userSpaceOnUse">
      <feFlood result="flood" flood-color="#fff"/>
      <feComposite result="composite" operator="in" in2="SourceGraphic"/>
      <feBlend result="blend" in2="SourceGraphic"/>
    </filter>
  </defs>
  <path id="dhost.svg" class="cls-1" d="M667.874,5251.01a1.885,1.885,0,1,0,1.875,1.88A1.884,1.884,0,0,0,667.874,5251.01Zm0,2.93a1.045,1.045,0,1,1,1.042-1.05A1.046,1.046,0,0,1,667.874,5253.94Zm16.46-2.09a0.42,0.42,0,0,1,.417.42,0.417,0.417,0,0,1-.834,0A0.42,0.42,0,0,1,684.334,5251.85Zm-1.667,0a0.42,0.42,0,0,1,.417.42,0.417,0.417,0,0,1-.833,0A0.419,0.419,0,0,1,682.667,5251.85Zm2.5,1.25a0.42,0.42,0,1,1-.416.42A0.419,0.419,0,0,1,685.167,5253.1Zm-1.666,0a0.42,0.42,0,1,1-.417.42A0.419,0.419,0,0,1,683.5,5253.1Zm-2.5-1.25a0.419,0.419,0,0,1,.417.42,0.417,0.417,0,0,1-.833,0A0.419,0.419,0,0,1,681,5251.85Zm0.834,1.25a0.42,0.42,0,1,1-.417.42A0.42,0.42,0,0,1,681.834,5253.1Zm-2.5-1.25a0.419,0.419,0,0,1,.416.42,0.417,0.417,0,0,1-.833,0A0.42,0.42,0,0,1,679.334,5251.85Zm0.833,1.25a0.42,0.42,0,1,1-.417.42A0.42,0.42,0,0,1,680.167,5253.1Zm-2.5-1.25a0.419,0.419,0,0,1,.416.42,0.417,0.417,0,0,1-.833,0A0.42,0.42,0,0,1,677.667,5251.85Zm0.833,1.25a0.42,0.42,0,1,1-.417.42A0.42,0.42,0,0,1,678.5,5253.1Zm-10.626,5.86a1.885,1.885,0,1,0,1.875,1.88A1.877,1.877,0,0,0,667.874,5258.96Zm0,2.93a1.045,1.045,0,1,1,1.042-1.05A1.046,1.046,0,0,1,667.874,5261.89Zm0,5.02a1.885,1.885,0,1,0,1.875,1.88A1.877,1.877,0,0,0,667.874,5266.91Zm0,2.93a1.045,1.045,0,1,1,1.042-1.05A1.046,1.046,0,0,1,667.874,5269.84Zm20.627-14.48v-4.93a1.93,1.93,0,0,0-1.92-1.93H665.419a1.93,1.93,0,0,0-1.92,1.93v4.93a1.911,1.911,0,0,1,0,3.02v4.93a1.939,1.939,0,0,0,.74,1.51,1.909,1.909,0,0,0-.74,1.51v4.93a1.93,1.93,0,0,0,1.92,1.93h11.616a20.464,20.464,0,0,0,3.549.31c3.613,0,7.424-.94,7.873-2.74a0.435,0.435,0,0,0,.044-0.19v-11.61a0.387,0.387,0,0,0-.04-0.17,2.607,2.607,0,0,0-1.484-1.55A1.917,1.917,0,0,0,688.5,5255.36Zm-24.169,7.95v-4.93a1.091,1.091,0,0,1,1.087-1.09h8.692a2.5,2.5,0,0,0-1.4,1.5,0.4,0.4,0,0,0-.04.17v5.44h-7.247A1.091,1.091,0,0,1,664.332,5263.31Zm9.429-2.57a0.233,0.233,0,0,1,.058.04c0.073,0.04.149,0.09,0.229,0.13a0.242,0.242,0,0,0,.068.04q0.145,0.075.3,0.15l0.051,0.03c0.092,0.04.187,0.08,0.284,0.12l0.086,0.03c0.115,0.05.232,0.09,0.353,0.13a0.021,0.021,0,0,0,.02.01q0.174,0.06.357,0.12a0.335,0.335,0,0,0,.1.02c0.12,0.04.242,0.07,0.366,0.11h0.03c0.134,0.04.271,0.07,0.41,0.1l0.106,0.03c0.119,0.02.239,0.05,0.361,0.07,0.024,0,.048.01,0.072,0.01,0.143,0.03.288,0.06,0.434,0.08a0.389,0.389,0,0,1,.105.02c0.121,0.01.243,0.03,0.366,0.05,0.034,0,.068.01,0.1,0.01,0.149,0.02.3,0.04,0.45,0.05a0.289,0.289,0,0,0,.092.01c0.127,0.02.255,0.03,0.383,0.04a0.455,0.455,0,0,1,.116.01l0.46,0.03h0.066c0.135,0.01.271,0.01,0.407,0.01a0.511,0.511,0,0,0,.123.01h0.932a0.515,0.515,0,0,0,.123-0.01c0.136,0,.271,0,0.407-0.01h0.066l0.46-.03a0.455,0.455,0,0,1,.116-0.01c0.128-.01.256-0.02,0.383-0.04a0.292,0.292,0,0,0,.092-0.01c0.151-.01.3-0.03,0.45-0.05,0.034,0,.068-0.01.1-0.01,0.123-.02.246-0.04,0.367-0.05,0.035-.01.07-0.01,0.105-0.02,0.146-.02.29-0.05,0.433-0.08,0.025,0,.049-0.01.073-0.01,0.122-.02.242-0.05,0.361-0.07l0.106-.03c0.138-.03.276-0.06,0.41-0.1h0.03c0.124-.04.246-0.07,0.366-0.11a0.335,0.335,0,0,0,.1-0.02c0.121-.04.241-0.08,0.356-0.12a0.019,0.019,0,0,0,.02-0.01c0.122-.04.239-0.08,0.354-0.13l0.086-.03c0.1-.04.192-0.08,0.284-0.12l0.051-.03q0.158-.075.3-0.15a0.242,0.242,0,0,0,.068-0.04c0.079-.04.155-0.09,0.229-0.13a0.2,0.2,0,0,1,.058-0.04,2.336,2.336,0,0,0,.246-0.17,0.014,0.014,0,0,1,.015-0.01v2.08a0.422,0.422,0,0,0-.008.15,0.551,0.551,0,0,1,.01.09,0.5,0.5,0,0,1-.025.14,0.667,0.667,0,0,1-.035.11c-0.013.03-.03,0.06-0.048,0.1a0.938,0.938,0,0,1-.06.09,1.391,1.391,0,0,1-.109.13c-0.016.02-.031,0.03-0.048,0.05-0.882.86-3.485,1.63-6.759,1.63s-5.873-.77-6.757-1.63a0.266,0.266,0,0,0-.052-0.05,1.5,1.5,0,0,1-.105-0.13,0.491,0.491,0,0,1-.064-0.1,0.944,0.944,0,0,1-.045-0.09,0.593,0.593,0,0,1-.037-0.11,0.622,0.622,0,0,1-.024-0.14,0.549,0.549,0,0,1,.009-0.09,0.444,0.444,0,0,0-.009-0.16v-2.07a0.015,0.015,0,0,1,.016.01C673.593,5260.63,673.674,5260.68,673.761,5260.74Zm13.847,6.16a0.787,0.787,0,0,1-.048.09q-0.027.045-.06,0.09a1.494,1.494,0,0,1-.11.14,0.256,0.256,0,0,0-.047.05c-0.883.85-3.486,1.63-6.759,1.63s-5.874-.78-6.757-1.63c-0.019-.02-0.035-0.04-0.052-0.06a1.425,1.425,0,0,1-.106-0.12c-0.023-.04-0.044-0.07-0.063-0.1a0.957,0.957,0,0,1-.046-0.09,0.781,0.781,0,0,1-.036-0.12,0.474,0.474,0,0,1-.021-0.11v-0.05c0-.02,0-0.04,0-0.06a0.407,0.407,0,0,0-.006-0.11l0-2.05v-0.08c0.017,0.01.036,0.03,0.054,0.04,0.052,0.04.107,0.08,0.163,0.12l0.142,0.09c0.075,0.04.15,0.09,0.23,0.13h0a10.717,10.717,0,0,0,3.385,1.03,0.037,0.037,0,0,1,.03.01q0.641,0.09,1.309.15a2.71,2.71,0,0,0,.284.02,2.617,2.617,0,0,0,.28.02c0.125,0.01.251,0.02,0.377,0.02,0.074,0,.147.01,0.221,0.01,0.2,0,.4.01,0.607,0.01s0.4-.01.606-0.01c0.075,0,.148-0.01.222-0.01,0.126,0,.25-0.01.375-0.02a1111.913,1111.913,0,0,0,.561-0.04c0.449-.04.891-0.09,1.321-0.16h0.019a10.313,10.313,0,0,0,3.617-1.16c0.048-.03.1-0.06,0.141-0.09s0.112-.08.164-0.12a0.2,0.2,0,0,0,.058-0.04v2.09a0.422,0.422,0,0,0-.009.15,0.686,0.686,0,0,1,.009.09,0.67,0.67,0,0,1-.025.14C687.634,5266.82,687.623,5266.86,687.608,5266.9Zm-22.189,5.45a1.091,1.091,0,0,1-1.087-1.09v-4.93a1.091,1.091,0,0,1,1.087-1.09h7.247v5.75h0.124a0.3,0.3,0,0,1,.023.05q0.022,0.045.048,0.09a2.021,2.021,0,0,0,.116.18c0.042,0.06.09,0.12,0.141,0.18,0.026,0.03.052,0.06,0.08,0.09a3.3,3.3,0,0,0,.572.46c0.008,0.01.016,0.01,0.024,0.02a5.283,5.283,0,0,0,.52.29h-8.895Zm22.249-1.89c0,0.02-.007.03-0.009,0.04-0.17,1.05-3.054,2.16-7.075,2.16a18.672,18.672,0,0,1-3.449-.3h0c-2.072-.4-3.219-1.06-3.539-1.62h0c-0.015-.03-0.025-0.06-0.036-0.08a0.761,0.761,0,0,1-.051-0.16l0-2.41a0.17,0.17,0,0,1,.048.04,1.959,1.959,0,0,1,.164.11c0.046,0.03.093,0.06,0.142,0.09,0.074,0.05.149,0.09,0.229,0.14h0a10.989,10.989,0,0,0,3.386,1.03h0.03c0.426,0.07.864,0.12,1.309,0.16a2.73,2.73,0,0,1,.284.02c0.093,0.01.186,0.01,0.279,0.02,0.126,0.01.252,0.01,0.378,0.02h0.22c0.2,0.01.406,0.01,0.608,0.01s0.4,0,.606-0.01h0.222c0.125-.01.25-0.01,0.374-0.02,0.094-.01.188-0.01,0.282-0.02s0.186-.01.28-0.02c0.449-.04.89-0.09,1.321-0.16h0.019a10.106,10.106,0,0,0,3.617-1.17l0.141-.09a1.226,1.226,0,0,0,.163-0.11,0.205,0.205,0,0,1,.059-0.04v2.37Zm0-11.34c0,1.06-3.03,2.25-7.084,2.25s-7.084-1.19-7.084-2.25a0.536,0.536,0,0,1,.028-0.16,0.733,0.733,0,0,1,.073-0.17s0-.01,0-0.01a2.269,2.269,0,0,1,.849-0.72l0.056-.03q0.111-.06.234-0.12c0.095-.05.193-0.09,0.3-0.14a0.154,0.154,0,0,0,.063-0.02,11.112,11.112,0,0,1,1.724-.51l0.63-.12,0.171-.03a20.874,20.874,0,0,1,5.907,0l0.174,0.03c0.214,0.04.421,0.08,0.625,0.12C686.367,5257.68,687.668,5258.42,687.668,5259.12Zm0-3.76a1.091,1.091,0,0,1-1.087,1.09h-1.93a0.189,0.189,0,0,0-.074-0.01c-0.274-.06-0.555-0.12-0.843-0.16-0.028-.01-0.055-0.01-0.083-0.02a20.557,20.557,0,0,0-6.133,0c-0.029.01-.058,0.01-0.086,0.02-0.287.04-.567,0.1-0.84,0.16a0.2,0.2,0,0,0-.077.01h-11.1a1.091,1.091,0,0,1-1.087-1.09v-4.93a1.091,1.091,0,0,1,1.087-1.09H686.58a1.091,1.091,0,0,1,1.088,1.09v4.93Z" transform="translate(-663.5 -5248.5)"/>
</svg>
