<svg xmlns="http://www.w3.org/2000/svg" xmlns:xlink="http://www.w3.org/1999/xlink" width="23" height="25" viewBox="0 0 23 25">
  <defs>
    <style>
      .cls-1 {
        fill-rule: evenodd;
        filter: url(#filter);
      }
    </style>
    <filter id="filter" x="665" y="4934" width="23" height="25" filterUnits="userSpaceOnUse">
      <feFlood result="flood" flood-color="#fff"/>
      <feComposite result="composite" operator="in" in2="SourceGraphic"/>
      <feBlend result="blend" in2="SourceGraphic"/>
    </filter>
  </defs>
  <path id="headphone.svg" class="cls-1" d="M684.866,4943.51v-0.96a8.9,8.9,0,0,0-2.24-6.03,7.639,7.639,0,0,0-5.733-2.52h-0.776a7.639,7.639,0,0,0-5.733,2.52,8.9,8.9,0,0,0-2.24,6.03v0.96a3.415,3.415,0,0,0-3.144,3.43v1.5a3.405,3.405,0,0,0,3.365,3.44h1.9a0.623,0.623,0,0,0,.616-0.63v-7.12a0.623,0.623,0,0,0-.616-0.63h-0.884v-0.95c0-4.16,2.9-7.29,6.735-7.29h0.776c3.842,0,6.735,3.13,6.735,7.29v0.95h-0.884a0.623,0.623,0,0,0-.616.63v7.12a0.629,0.629,0,0,0,.616.63H683.6c-0.252,3.29-2.466,4.05-3.493,4.22a2.173,2.173,0,0,0-2.06-1.53h-1.541a2.216,2.216,0,0,0,0,4.43h1.546a2.173,2.173,0,0,0,2.086-1.63,5.726,5.726,0,0,0,2.09-.73,5.59,5.59,0,0,0,2.61-4.77,3.407,3.407,0,0,0,3.16-3.43v-1.5A3.4,3.4,0,0,0,684.866,4943.51Zm-15.212,7.11h-1.279a2.16,2.16,0,0,1-2.132-2.18v-1.5a2.154,2.154,0,0,1,2.132-2.18h1.279v5.86Zm8.4,7.12h-1.546a0.95,0.95,0,0,1,0-1.9h1.546A0.95,0.95,0,0,1,678.054,4957.74Zm8.718-9.3a2.16,2.16,0,0,1-2.132,2.18h-1.279v-5.86h1.279a2.154,2.154,0,0,1,2.132,2.18v1.5Z" transform="translate(-665 -4934)"/>
</svg>
