<svg id="Layer_1" data-name="Layer 1" xmlns="http://www.w3.org/2000/svg" xmlns:xlink="http://www.w3.org/1999/xlink" viewBox="0 0 733.92 576.92"><defs><style>.cls-1{fill:#1d1d1b;}.cls-2{fill:url(#linear-gradient);}.cls-10,.cls-11,.cls-12,.cls-3,.cls-4,.cls-5,.cls-6,.cls-7,.cls-8,.cls-9{fill:none;stroke-miterlimit:10;stroke-width:5px;}.cls-3{stroke:url(#linear-gradient-2);}.cls-4{stroke:url(#linear-gradient-3);}.cls-5{stroke:url(#linear-gradient-4);}.cls-6{stroke:url(#linear-gradient-5);}.cls-7{stroke:url(#linear-gradient-6);}.cls-8{stroke:url(#linear-gradient-7);}.cls-9{stroke:url(#linear-gradient-8);}.cls-10{stroke:url(#linear-gradient-9);}.cls-11{stroke:url(#linear-gradient-10);}.cls-12{stroke:url(#linear-gradient-11);}.cls-13{fill:url(#linear-gradient-12);}.cls-14{fill:url(#linear-gradient-13);}.cls-15{fill:url(#linear-gradient-14);}.cls-16{fill:url(#linear-gradient-15);}.cls-17{fill:url(#linear-gradient-16);}.cls-18{fill:url(#linear-gradient-17);}.cls-19{fill:url(#linear-gradient-18);}.cls-20{fill:url(#linear-gradient-19);}.cls-21{fill:url(#linear-gradient-20);}.cls-22{fill:url(#linear-gradient-21);}.cls-23{fill:url(#linear-gradient-22);}.cls-24{fill:url(#linear-gradient-23);}.cls-25{fill:url(#linear-gradient-24);}.cls-26{fill:url(#linear-gradient-25);}.cls-27{fill:url(#linear-gradient-26);}.cls-28{fill:url(#linear-gradient-27);}.cls-29{fill:url(#linear-gradient-28);}.cls-30{fill:url(#linear-gradient-29);}.cls-31{fill:url(#linear-gradient-30);}.cls-32{fill:url(#linear-gradient-31);}.cls-33{fill:url(#linear-gradient-32);}.cls-34{fill:url(#linear-gradient-33);}.cls-35{fill:url(#linear-gradient-34);}.cls-36{fill:url(#linear-gradient-35);}.cls-37{fill:url(#linear-gradient-36);}.cls-38{fill:url(#linear-gradient-37);}.cls-39{fill:url(#linear-gradient-38);}.cls-40{fill:url(#linear-gradient-39);}.cls-41{fill:url(#linear-gradient-40);}.cls-42{font-size:72px;fill:#4081c3;font-family:Arial-Black, Arial;font-weight:800;}.cls-43{fill:#4194c1;font-family:ArialMT, Arial;font-weight:400;}.cls-44{fill:#fff;}</style><linearGradient id="linear-gradient" x1="915.87" y1="677.01" x2="1211.18" y2="677.01" gradientUnits="userSpaceOnUse"><stop offset="0.02" stop-color="#4081c3"/><stop offset="1" stop-color="#89cab5"/></linearGradient><linearGradient id="linear-gradient-2" x1="540.58" y1="676.79" x2="895.73" y2="676.79" gradientUnits="userSpaceOnUse"><stop offset="0.23" stop-color="#89cab5"/><stop offset="0.82" stop-color="#4081c3"/></linearGradient><linearGradient id="linear-gradient-3" x1="738.22" y1="691.42" x2="865.61" y2="691.42" xlink:href="#linear-gradient-2"/><linearGradient id="linear-gradient-4" x1="631.26" y1="737.39" x2="895.79" y2="737.39" xlink:href="#linear-gradient-2"/><linearGradient id="linear-gradient-5" x1="770.88" y1="639.45" x2="893.28" y2="639.45" xlink:href="#linear-gradient-2"/><linearGradient id="linear-gradient-6" x1="676.7" y1="757.73" x2="926" y2="757.73" xlink:href="#linear-gradient-2"/><linearGradient id="linear-gradient-7" x1="729.79" y1="753.49" x2="811.29" y2="753.49" xlink:href="#linear-gradient-2"/><linearGradient id="linear-gradient-8" x1="788.1" y1="834.68" x2="877.6" y2="834.68" xlink:href="#linear-gradient-2"/><linearGradient id="linear-gradient-9" x1="548.6" y1="763.83" x2="744.18" y2="763.83" xlink:href="#linear-gradient-2"/><linearGradient id="linear-gradient-10" x1="640.99" y1="918.28" x2="662.26" y2="918.28" xlink:href="#linear-gradient-2"/><linearGradient id="linear-gradient-11" x1="573.34" y1="566.84" x2="630.64" y2="566.84" xlink:href="#linear-gradient-2"/><linearGradient id="linear-gradient-12" x1="139.51" y1="99.14" x2="155.07" y2="99.14" xlink:href="#linear-gradient"/><linearGradient id="linear-gradient-13" x1="188.15" y1="392.06" x2="225.66" y2="392.06" xlink:href="#linear-gradient"/><linearGradient id="linear-gradient-14" x1="223.5" y1="277.48" x2="272.46" y2="277.48" xlink:href="#linear-gradient"/><linearGradient id="linear-gradient-15" x1="341.22" y1="155.12" x2="423.84" y2="155.12" xlink:href="#linear-gradient"/><linearGradient id="linear-gradient-16" x1="266.4" y1="431.35" x2="291.73" y2="431.35" xlink:href="#linear-gradient"/><linearGradient id="linear-gradient-17" x1="0" y1="287.02" x2="25.33" y2="287.02" xlink:href="#linear-gradient"/><linearGradient id="linear-gradient-18" x1="114.97" y1="76.33" x2="140.3" y2="76.33" xlink:href="#linear-gradient"/><linearGradient id="linear-gradient-19" x1="156.99" y1="137.38" x2="178.61" y2="137.38" xlink:href="#linear-gradient"/><linearGradient id="linear-gradient-20" x1="167.8" y1="10.81" x2="189.42" y2="10.81" xlink:href="#linear-gradient"/><linearGradient id="linear-gradient-21" x1="281.7" y1="87.13" x2="303.32" y2="87.13" xlink:href="#linear-gradient"/><linearGradient id="linear-gradient-22" x1="405.2" y1="84.87" x2="426.82" y2="84.87" xlink:href="#linear-gradient"/><linearGradient id="linear-gradient-23" x1="86.11" y1="117.52" x2="107.72" y2="117.52" xlink:href="#linear-gradient"/><linearGradient id="linear-gradient-24" x1="72.38" y1="346.85" x2="97.71" y2="346.85" xlink:href="#linear-gradient"/><linearGradient id="linear-gradient-25" x1="320.04" y1="289.29" x2="354.8" y2="289.29" xlink:href="#linear-gradient"/><linearGradient id="linear-gradient-26" x1="61.18" y1="240.65" x2="95.95" y2="240.65" xlink:href="#linear-gradient"/><linearGradient id="linear-gradient-27" x1="387.59" y1="28.19" x2="422.35" y2="28.19" xlink:href="#linear-gradient"/><linearGradient id="linear-gradient-28" x1="198.02" y1="96.43" x2="232.78" y2="96.43" xlink:href="#linear-gradient"/><linearGradient id="linear-gradient-29" x1="299.8" y1="394.57" x2="329.35" y2="394.57" xlink:href="#linear-gradient"/><linearGradient id="linear-gradient-30" x1="433.94" y1="392.74" x2="463.49" y2="392.74" xlink:href="#linear-gradient"/><linearGradient id="linear-gradient-31" x1="142.16" y1="183.56" x2="171.71" y2="183.56" xlink:href="#linear-gradient"/><linearGradient id="linear-gradient-32" x1="248.72" y1="185.83" x2="278.27" y2="185.83" xlink:href="#linear-gradient"/><linearGradient id="linear-gradient-33" x1="400.6" y1="253" x2="430.15" y2="253" xlink:href="#linear-gradient"/><linearGradient id="linear-gradient-34" x1="388.2" y1="330.41" x2="409.3" y2="330.41" xlink:href="#linear-gradient"/><linearGradient id="linear-gradient-35" x1="155.07" y1="433.97" x2="176.74" y2="433.97" xlink:href="#linear-gradient"/><linearGradient id="linear-gradient-36" x1="175.02" y1="464.33" x2="190.6" y2="464.33" xlink:href="#linear-gradient"/><linearGradient id="linear-gradient-37" x1="135.24" y1="387.58" x2="150.81" y2="387.58" xlink:href="#linear-gradient"/><linearGradient id="linear-gradient-38" x1="56.04" y1="395.87" x2="71.61" y2="395.87" xlink:href="#linear-gradient"/><linearGradient id="linear-gradient-39" x1="412.62" y1="448.76" x2="428.2" y2="448.76" xlink:href="#linear-gradient"/><linearGradient id="linear-gradient-40" x1="297.8" y1="25.14" x2="313.38" y2="25.14" xlink:href="#linear-gradient"/></defs><path class="cls-1" d="M273.67,179.67" transform="translate(-477.27 -469.13)"/><path class="cls-1" d="M115.33,71.33" transform="translate(-477.27 -469.13)"/><path class="cls-1" d="M395.27,402" transform="translate(-477.27 -469.13)"/><path class="cls-2" d="M968.54,863.48c13.89.32,34,.56,58.36,0,40.17-.92,60.26-1.38,77.92-5.88,18.14-4.61,51.6-13.12,77.33-43.68,33.21-39.44,29.2-86.71,28.54-93.3-4.35-43.13-29.89-69.89-39.79-80-30.16-30.67-65.26-38.9-78.44-41.31A181.35,181.35,0,0,0,940.88,490.22a484.84,484.84,0,0,0-25,152.71C915.73,744,947.57,821.75,968.54,863.48Z" transform="translate(-477.27 -469.13)"/><path class="cls-3" d="M620.29,856.71c-48.25-13.1-80.61-58.84-76.93-108.15,3.6-48.16,40.69-88,89-95.11L740.76,655l-48.09-89.4a132.16,132.16,0,0,1,77.1-9.3,203,203,0,0,1,112.47-58.94l11,56.68" transform="translate(-477.27 -469.13)"/><path class="cls-4" d="M861.68,622.75,742.31,656.86l72.38,101.55Q838.18,690.58,861.68,622.75Z" transform="translate(-477.27 -469.13)"/><path class="cls-5" d="M894.65,722,816.2,762.58,791.84,863.7l-66.6-117.09Q680,700.41,634.69,654.2a54.8,54.8,0,0,1,14.4-48.12" transform="translate(-477.27 -469.13)"/><path class="cls-6" d="M772.25,559.85l92.46,60.25q13.06,50.21,26.15,100.42" transform="translate(-477.27 -469.13)"/><path class="cls-7" d="M926,861.87,680.4,863.7l49-123.47q7.59-45.29,15.16-90.57" transform="translate(-477.27 -469.13)"/><path class="cls-8" d="M810.9,759.93l-80.72-12.88" transform="translate(-477.27 -469.13)"/><path class="cls-9" d="M876,799.54l-86.34,70.29" transform="translate(-477.27 -469.13)"/><path class="cls-10" d="M556.62,818.67l178.87-75.41L549.05,709.15" transform="translate(-477.27 -469.13)"/><path class="cls-11" d="M643.17,903.1l16.91,30.36" transform="translate(-477.27 -469.13)"/><path class="cls-12" d="M574.18,587.56l52.09-18.71-21.37-23.4" transform="translate(-477.27 -469.13)"/><circle class="cls-13" cx="147.29" cy="99.14" r="7.78"/><circle class="cls-14" cx="206.9" cy="392.06" r="18.76"/><circle class="cls-15" cx="247.98" cy="277.48" r="24.48"/><circle class="cls-16" cx="382.53" cy="155.12" r="41.31"/><circle class="cls-17" cx="279.06" cy="431.35" r="12.66"/><circle class="cls-18" cx="12.66" cy="287.02" r="12.66"/><circle class="cls-19" cx="127.63" cy="76.33" r="12.66"/><circle class="cls-20" cx="167.8" cy="137.38" r="10.81"/><circle class="cls-21" cx="178.61" cy="10.81" r="10.81"/><circle class="cls-22" cx="292.51" cy="87.13" r="10.81"/><circle class="cls-23" cx="416.01" cy="84.87" r="10.81"/><circle class="cls-24" cx="96.91" cy="117.52" r="10.81"/><circle class="cls-25" cx="85.04" cy="346.85" r="12.66"/><circle class="cls-26" cx="337.42" cy="289.29" r="17.38"/><circle class="cls-27" cx="78.57" cy="240.65" r="17.38"/><circle class="cls-28" cx="404.97" cy="28.19" r="17.38"/><circle class="cls-29" cx="215.4" cy="96.43" r="17.38"/><circle class="cls-30" cx="314.57" cy="394.57" r="14.77"/><circle class="cls-31" cx="448.72" cy="392.74" r="14.77"/><circle class="cls-32" cx="156.94" cy="183.56" r="14.77"/><circle class="cls-33" cx="263.49" cy="185.83" r="14.77"/><circle class="cls-34" cx="415.37" cy="253" r="14.77"/><circle class="cls-35" cx="398.75" cy="330.41" r="10.55"/><circle class="cls-36" cx="165.91" cy="433.97" r="10.83"/><circle class="cls-37" cx="182.81" cy="464.33" r="7.79"/><circle class="cls-38" cx="143.02" cy="387.58" r="7.79"/><circle class="cls-39" cx="63.82" cy="395.87" r="7.79"/><circle class="cls-40" cx="420.41" cy="448.76" r="7.79"/><circle class="cls-41" cx="305.59" cy="25.14" r="7.79"/><text class="cls-42" transform="translate(95.52 540.77)">IDEAL<tspan class="cls-43" x="240.05" y="0">CONNECT</tspan></text><polygon class="cls-44" points="247.94 540.8 259.53 502.38 271.12 540.8 247.94 540.8"/><rect class="cls-44" x="196.14" y="489.22" width="4.86" height="51.58"/><rect class="cls-44" x="559.41" y="489.22" width="4.86" height="51.58"/></svg>